<svg width="206" height="72" viewBox="0 0 206 72" fill="none" xmlns="http://www.w3.org/2000/svg">
<rect x="36" y="5" width="170" height="54" rx="8" fill="white"/>
<path d="M77.2784 28V16.3636H84.4943V17.875H79.0341V21.4205H83.9773V22.9261H79.0341V28H77.2784ZM89.0256 28.1932C88.4725 28.1932 87.9725 28.0909 87.5256 27.8864C87.0786 27.678 86.7244 27.3769 86.4631 26.983C86.2055 26.589 86.0767 26.1061 86.0767 25.5341C86.0767 25.0417 86.1714 24.6364 86.3608 24.3182C86.5502 24 86.8059 23.7481 87.1278 23.5625C87.4498 23.3769 87.8097 23.2367 88.2074 23.142C88.6051 23.0473 89.0104 22.9754 89.4233 22.9261C89.946 22.8655 90.3703 22.8163 90.696 22.7784C91.0218 22.7367 91.2585 22.6705 91.4062 22.5795C91.554 22.4886 91.6278 22.3409 91.6278 22.1364V22.0966C91.6278 21.6004 91.4877 21.2159 91.2074 20.9432C90.9309 20.6705 90.518 20.5341 89.9688 20.5341C89.3968 20.5341 88.946 20.661 88.6165 20.9148C88.2907 21.1648 88.0653 21.4432 87.9403 21.75L86.3438 21.3864C86.5331 20.8561 86.8097 20.428 87.1733 20.1023C87.5407 19.7727 87.9631 19.5341 88.4403 19.3864C88.9176 19.2348 89.4195 19.1591 89.946 19.1591C90.2945 19.1591 90.6638 19.2008 91.054 19.2841C91.4479 19.3636 91.8153 19.5114 92.1562 19.7273C92.5009 19.9432 92.7831 20.2519 93.0028 20.6534C93.2225 21.0511 93.3324 21.5682 93.3324 22.2045V28H91.6733V26.8068H91.6051C91.4953 27.0265 91.3305 27.2424 91.1108 27.4545C90.8911 27.6667 90.6089 27.8428 90.2642 27.983C89.9195 28.1231 89.5066 28.1932 89.0256 28.1932ZM89.3949 26.8295C89.8646 26.8295 90.2661 26.7367 90.5994 26.5511C90.9366 26.3655 91.1922 26.1231 91.3665 25.8239C91.5445 25.5208 91.6335 25.197 91.6335 24.8523V23.7273C91.5729 23.7879 91.4555 23.8447 91.2812 23.8977C91.1108 23.947 90.9157 23.9905 90.696 24.0284C90.4763 24.0625 90.2623 24.0947 90.054 24.125C89.8456 24.1515 89.6714 24.1742 89.5312 24.1932C89.2017 24.2348 88.9006 24.3049 88.6278 24.4034C88.3589 24.5019 88.143 24.6439 87.9801 24.8295C87.821 25.0114 87.7415 25.2538 87.7415 25.5568C87.7415 25.9773 87.8968 26.2955 88.2074 26.5114C88.518 26.7235 88.9138 26.8295 89.3949 26.8295ZM99.2713 28.1761C98.4266 28.1761 97.6993 27.9848 97.0895 27.6023C96.4834 27.2159 96.0175 26.6837 95.6918 26.0057C95.366 25.3277 95.2031 24.5511 95.2031 23.6761C95.2031 22.7898 95.3698 22.0076 95.7031 21.3295C96.0365 20.6477 96.5062 20.1155 97.1122 19.733C97.7183 19.3504 98.4323 19.1591 99.2543 19.1591C99.9171 19.1591 100.508 19.2822 101.027 19.5284C101.546 19.7708 101.964 20.1117 102.283 20.5511C102.605 20.9905 102.796 21.5038 102.857 22.0909H101.203C101.112 21.6818 100.904 21.3295 100.578 21.0341C100.256 20.7386 99.8243 20.5909 99.2827 20.5909C98.8092 20.5909 98.3944 20.7159 98.0384 20.9659C97.6861 21.2121 97.4115 21.5644 97.2145 22.0227C97.0175 22.4773 96.919 23.0152 96.919 23.6364C96.919 24.2727 97.0156 24.822 97.2088 25.2841C97.402 25.7462 97.6747 26.1042 98.027 26.358C98.383 26.6117 98.8016 26.7386 99.2827 26.7386C99.6046 26.7386 99.8963 26.6799 100.158 26.5625C100.423 26.4413 100.644 26.2689 100.822 26.0455C101.004 25.822 101.131 25.553 101.203 25.2386H102.857C102.796 25.803 102.612 26.3068 102.305 26.75C101.999 27.1932 101.588 27.5417 101.072 27.7955C100.561 28.0492 99.9607 28.1761 99.2713 28.1761ZM108.435 28.1761C107.575 28.1761 106.834 27.9924 106.213 27.625C105.596 27.2538 105.118 26.733 104.781 26.0625C104.448 25.3883 104.281 24.5985 104.281 23.6932C104.281 22.7992 104.448 22.0114 104.781 21.3295C105.118 20.6477 105.588 20.1155 106.19 19.733C106.796 19.3504 107.505 19.1591 108.315 19.1591C108.808 19.1591 109.285 19.2405 109.747 19.4034C110.209 19.5663 110.624 19.822 110.991 20.1705C111.359 20.5189 111.649 20.9716 111.861 21.5284C112.073 22.0814 112.179 22.7538 112.179 23.5455V24.1477H105.241V22.875H110.514C110.514 22.428 110.423 22.0322 110.241 21.6875C110.06 21.339 109.804 21.0644 109.474 20.8636C109.149 20.6629 108.766 20.5625 108.327 20.5625C107.849 20.5625 107.433 20.6799 107.077 20.9148C106.724 21.1458 106.452 21.4489 106.259 21.8239C106.069 22.1951 105.974 22.5985 105.974 23.0341V24.0284C105.974 24.6117 106.077 25.108 106.281 25.517C106.49 25.9261 106.779 26.2386 107.151 26.4545C107.522 26.6667 107.955 26.7727 108.452 26.7727C108.774 26.7727 109.067 26.7273 109.332 26.6364C109.598 26.5417 109.827 26.4015 110.02 26.2159C110.213 26.0303 110.361 25.8011 110.463 25.5284L112.071 25.8182C111.942 26.2917 111.711 26.7064 111.378 27.0625C111.048 27.4148 110.634 27.6894 110.134 27.8864C109.637 28.0795 109.071 28.1761 108.435 28.1761ZM114.2 28V16.3636H115.899V20.6875H116.001C116.1 20.5057 116.242 20.2955 116.428 20.0568C116.613 19.8182 116.871 19.6098 117.2 19.4318C117.53 19.25 117.965 19.1591 118.507 19.1591C119.212 19.1591 119.84 19.3371 120.393 19.6932C120.946 20.0492 121.38 20.5625 121.695 21.233C122.013 21.9034 122.172 22.7102 122.172 23.6534C122.172 24.5966 122.015 25.4053 121.7 26.0795C121.386 26.75 120.954 27.267 120.405 27.6307C119.856 27.9905 119.229 28.1705 118.524 28.1705C117.994 28.1705 117.56 28.0814 117.223 27.9034C116.89 27.7254 116.628 27.517 116.439 27.2784C116.25 27.0398 116.104 26.8277 116.001 26.642H115.859V28H114.2ZM115.865 23.6364C115.865 24.25 115.954 24.7879 116.132 25.25C116.31 25.7121 116.568 26.0739 116.905 26.3352C117.242 26.5928 117.655 26.7216 118.143 26.7216C118.651 26.7216 119.075 26.5871 119.416 26.3182C119.757 26.0455 120.015 25.6761 120.189 25.2102C120.367 24.7443 120.456 24.2197 120.456 23.6364C120.456 23.0606 120.369 22.5436 120.195 22.0852C120.024 21.6269 119.767 21.2652 119.422 21C119.081 20.7348 118.655 20.6023 118.143 20.6023C117.651 20.6023 117.234 20.7292 116.893 20.983C116.556 21.2367 116.301 21.5909 116.126 22.0455C115.952 22.5 115.865 23.0303 115.865 23.6364ZM127.756 28.1761C126.938 28.1761 126.223 27.9886 125.614 27.6136C125.004 27.2386 124.53 26.714 124.193 26.0398C123.856 25.3655 123.688 24.5777 123.688 23.6761C123.688 22.7708 123.856 21.9792 124.193 21.3011C124.53 20.6231 125.004 20.0966 125.614 19.7216C126.223 19.3466 126.938 19.1591 127.756 19.1591C128.574 19.1591 129.288 19.3466 129.898 19.7216C130.508 20.0966 130.981 20.6231 131.318 21.3011C131.655 21.9792 131.824 22.7708 131.824 23.6761C131.824 24.5777 131.655 25.3655 131.318 26.0398C130.981 26.714 130.508 27.2386 129.898 27.6136C129.288 27.9886 128.574 28.1761 127.756 28.1761ZM127.761 26.75C128.292 26.75 128.731 26.6098 129.08 26.3295C129.428 26.0492 129.686 25.6761 129.852 25.2102C130.023 24.7443 130.108 24.2311 130.108 23.6705C130.108 23.1136 130.023 22.6023 129.852 22.1364C129.686 21.6667 129.428 21.2898 129.08 21.0057C128.731 20.7216 128.292 20.5795 127.761 20.5795C127.227 20.5795 126.784 20.7216 126.432 21.0057C126.083 21.2898 125.824 21.6667 125.653 22.1364C125.487 22.6023 125.403 23.1136 125.403 23.6705C125.403 24.2311 125.487 24.7443 125.653 25.2102C125.824 25.6761 126.083 26.0492 126.432 26.3295C126.784 26.6098 127.227 26.75 127.761 26.75ZM137.396 28.1761C136.578 28.1761 135.864 27.9886 135.254 27.6136C134.644 27.2386 134.171 26.714 133.834 26.0398C133.497 25.3655 133.328 24.5777 133.328 23.6761C133.328 22.7708 133.497 21.9792 133.834 21.3011C134.171 20.6231 134.644 20.0966 135.254 19.7216C135.864 19.3466 136.578 19.1591 137.396 19.1591C138.214 19.1591 138.929 19.3466 139.538 19.7216C140.148 20.0966 140.622 20.6231 140.959 21.3011C141.296 21.9792 141.464 22.7708 141.464 23.6761C141.464 24.5777 141.296 25.3655 140.959 26.0398C140.622 26.714 140.148 27.2386 139.538 27.6136C138.929 27.9886 138.214 28.1761 137.396 28.1761ZM137.402 26.75C137.932 26.75 138.372 26.6098 138.72 26.3295C139.069 26.0492 139.326 25.6761 139.493 25.2102C139.663 24.7443 139.749 24.2311 139.749 23.6705C139.749 23.1136 139.663 22.6023 139.493 22.1364C139.326 21.6667 139.069 21.2898 138.72 21.0057C138.372 20.7216 137.932 20.5795 137.402 20.5795C136.868 20.5795 136.425 20.7216 136.072 21.0057C135.724 21.2898 135.464 21.6667 135.294 22.1364C135.127 22.6023 135.044 23.1136 135.044 23.6705C135.044 24.2311 135.127 24.7443 135.294 25.2102C135.464 25.6761 135.724 26.0492 136.072 26.3295C136.425 26.6098 136.868 26.75 137.402 26.75ZM144.923 25.0398L144.912 22.9659H145.207L148.685 19.2727H150.719L146.753 23.4773H146.486L144.923 25.0398ZM143.361 28V16.3636H145.06V28H143.361ZM148.872 28L145.747 23.8523L146.918 22.6648L150.957 28H148.872Z" fill="#383838"/>
<path d="M87.2273 41.1818C87.2273 42.4091 87.0057 43.4697 86.5625 44.3636C86.1193 45.2576 85.5114 45.947 84.7386 46.4318C83.9659 46.9167 83.0833 47.1591 82.0909 47.1591C81.0985 47.1591 80.2159 46.9167 79.4432 46.4318C78.6705 45.947 78.0625 45.2576 77.6193 44.3636C77.1761 43.4697 76.9545 42.4091 76.9545 41.1818C76.9545 39.9545 77.1761 38.8939 77.6193 38C78.0625 37.1061 78.6705 36.4167 79.4432 35.9318C80.2159 35.447 81.0985 35.2045 82.0909 35.2045C83.0833 35.2045 83.9659 35.447 84.7386 35.9318C85.5114 36.4167 86.1193 37.1061 86.5625 38C87.0057 38.8939 87.2273 39.9545 87.2273 41.1818ZM85.8636 41.1818C85.8636 40.1742 85.6951 39.3239 85.358 38.6307C85.0246 37.9375 84.572 37.4129 84 37.0568C83.4318 36.7008 82.7955 36.5227 82.0909 36.5227C81.3864 36.5227 80.7481 36.7008 80.1761 37.0568C79.608 37.4129 79.1553 37.9375 78.8182 38.6307C78.4848 39.3239 78.3182 40.1742 78.3182 41.1818C78.3182 42.1894 78.4848 43.0398 78.8182 43.733C79.1553 44.4261 79.608 44.9508 80.1761 45.3068C80.7481 45.6629 81.3864 45.8409 82.0909 45.8409C82.7955 45.8409 83.4318 45.6629 84 45.3068C84.572 44.9508 85.0246 44.4261 85.358 43.733C85.6951 43.0398 85.8636 42.1894 85.8636 41.1818ZM93.3011 38.2727V39.4091H88.5966V38.2727H93.3011ZM90.0057 47V37.0682C90.0057 36.5682 90.1231 36.1515 90.358 35.8182C90.5928 35.4848 90.8977 35.2348 91.2727 35.0682C91.6477 34.9015 92.0436 34.8182 92.4602 34.8182C92.7898 34.8182 93.0587 34.8447 93.267 34.8977C93.4754 34.9508 93.6307 35 93.733 35.0455L93.3466 36.2045C93.2784 36.1818 93.1837 36.1534 93.0625 36.1193C92.9451 36.0852 92.7898 36.0682 92.5966 36.0682C92.1534 36.0682 91.8333 36.1799 91.6364 36.4034C91.4432 36.6269 91.3466 36.9545 91.3466 37.3864V47H90.0057ZM99.0668 38.2727V39.4091H94.3622V38.2727H99.0668ZM95.7713 47V37.0682C95.7713 36.5682 95.8887 36.1515 96.1236 35.8182C96.3584 35.4848 96.6634 35.2348 97.0384 35.0682C97.4134 34.9015 97.8092 34.8182 98.2259 34.8182C98.5554 34.8182 98.8243 34.8447 99.0327 34.8977C99.241 34.9508 99.3963 35 99.4986 35.0455L99.1122 36.2045C99.044 36.1818 98.9493 36.1534 98.8281 36.1193C98.7107 36.0852 98.5554 36.0682 98.3622 36.0682C97.919 36.0682 97.599 36.1799 97.402 36.4034C97.2088 36.6269 97.1122 36.9545 97.1122 37.3864V47H95.7713ZM100.946 47V38.2727H102.287V47H100.946ZM101.628 36.8182C101.366 36.8182 101.141 36.7292 100.952 36.5511C100.766 36.3731 100.673 36.1591 100.673 35.9091C100.673 35.6591 100.766 35.4451 100.952 35.267C101.141 35.089 101.366 35 101.628 35C101.889 35 102.113 35.089 102.298 35.267C102.488 35.4451 102.582 35.6591 102.582 35.9091C102.582 36.1591 102.488 36.3731 102.298 36.5511C102.113 36.7292 101.889 36.8182 101.628 36.8182ZM108.288 47.1818C107.47 47.1818 106.766 46.9886 106.175 46.6023C105.584 46.2159 105.129 45.6837 104.811 45.0057C104.493 44.3277 104.334 43.553 104.334 42.6818C104.334 41.7955 104.497 41.0133 104.822 40.3352C105.152 39.6534 105.61 39.1212 106.197 38.7386C106.788 38.3523 107.478 38.1591 108.266 38.1591C108.879 38.1591 109.432 38.2727 109.925 38.5C110.417 38.7273 110.821 39.0455 111.135 39.4545C111.449 39.8636 111.644 40.3409 111.72 40.8864H110.379C110.277 40.4886 110.05 40.1364 109.697 39.8295C109.349 39.5189 108.879 39.3636 108.288 39.3636C107.766 39.3636 107.307 39.5 106.913 39.7727C106.523 40.0417 106.218 40.4223 105.999 40.9148C105.783 41.4034 105.675 41.9773 105.675 42.6364C105.675 43.3106 105.781 43.8977 105.993 44.3977C106.209 44.8977 106.512 45.286 106.902 45.5625C107.296 45.839 107.758 45.9773 108.288 45.9773C108.637 45.9773 108.953 45.9167 109.237 45.7955C109.521 45.6742 109.762 45.5 109.959 45.2727C110.156 45.0455 110.296 44.7727 110.379 44.4545H111.72C111.644 44.9697 111.457 45.4337 111.158 45.8466C110.862 46.2557 110.47 46.5814 109.982 46.8239C109.497 47.0625 108.932 47.1818 108.288 47.1818ZM113.68 47V38.2727H115.021V47H113.68ZM114.362 36.8182C114.101 36.8182 113.875 36.7292 113.686 36.5511C113.5 36.3731 113.408 36.1591 113.408 35.9091C113.408 35.6591 113.5 35.4451 113.686 35.267C113.875 35.089 114.101 35 114.362 35C114.624 35 114.847 35.089 115.033 35.267C115.222 35.4451 115.317 35.6591 115.317 35.9091C115.317 36.1591 115.222 36.3731 115.033 36.5511C114.847 36.7292 114.624 36.8182 114.362 36.8182ZM120.045 47.2045C119.492 47.2045 118.991 47.1004 118.54 46.892C118.089 46.6799 117.731 46.375 117.466 45.9773C117.201 45.5758 117.068 45.0909 117.068 44.5227C117.068 44.0227 117.167 43.6174 117.364 43.3068C117.561 42.9924 117.824 42.7462 118.153 42.5682C118.483 42.3902 118.847 42.2576 119.244 42.1705C119.646 42.0795 120.049 42.0076 120.455 41.9545C120.985 41.8864 121.415 41.8352 121.744 41.8011C122.078 41.7633 122.32 41.7008 122.472 41.6136C122.627 41.5265 122.705 41.375 122.705 41.1591V41.1136C122.705 40.553 122.551 40.1174 122.244 39.8068C121.941 39.4962 121.481 39.3409 120.864 39.3409C120.223 39.3409 119.722 39.4811 119.358 39.7614C118.994 40.0417 118.739 40.3409 118.591 40.6591L117.318 40.2045C117.545 39.6742 117.848 39.2614 118.227 38.9659C118.61 38.6667 119.027 38.4583 119.477 38.3409C119.932 38.2197 120.379 38.1591 120.818 38.1591C121.098 38.1591 121.42 38.1932 121.784 38.2614C122.152 38.3258 122.506 38.4602 122.847 38.6648C123.191 38.8693 123.477 39.178 123.705 39.5909C123.932 40.0038 124.045 40.5568 124.045 41.25V47H122.705V45.8182H122.636C122.545 46.0076 122.394 46.2102 122.182 46.4261C121.97 46.642 121.688 46.8258 121.335 46.9773C120.983 47.1288 120.553 47.2045 120.045 47.2045ZM120.25 46C120.78 46 121.227 45.8958 121.591 45.6875C121.958 45.4792 122.235 45.2102 122.42 44.8807C122.61 44.5511 122.705 44.2045 122.705 43.8409V42.6136C122.648 42.6818 122.523 42.7443 122.33 42.8011C122.14 42.8542 121.92 42.9015 121.67 42.9432C121.424 42.9811 121.184 43.0152 120.949 43.0455C120.718 43.072 120.53 43.0947 120.386 43.1136C120.038 43.1591 119.712 43.233 119.409 43.3352C119.11 43.4337 118.867 43.5833 118.682 43.7841C118.5 43.9811 118.409 44.25 118.409 44.5909C118.409 45.0568 118.581 45.4091 118.926 45.6477C119.275 45.8826 119.716 46 120.25 46ZM127.834 35.3636V47H126.493V35.3636H127.834ZM134.972 47V35.3636H138.903C139.816 35.3636 140.563 35.5284 141.142 35.858C141.725 36.1837 142.157 36.625 142.438 37.1818C142.718 37.7386 142.858 38.3598 142.858 39.0455C142.858 39.7311 142.718 40.3542 142.438 40.9148C142.161 41.4754 141.733 41.9223 141.153 42.2557C140.574 42.5852 139.831 42.75 138.926 42.75H136.108V41.5H138.881C139.506 41.5 140.008 41.392 140.386 41.1761C140.765 40.9602 141.04 40.6686 141.21 40.3011C141.384 39.9299 141.472 39.5114 141.472 39.0455C141.472 38.5795 141.384 38.1629 141.21 37.7955C141.04 37.428 140.763 37.1402 140.381 36.9318C139.998 36.7197 139.491 36.6136 138.858 36.6136H136.381V47H134.972ZM147.514 47.2045C146.961 47.2045 146.459 47.1004 146.009 46.892C145.558 46.6799 145.2 46.375 144.935 45.9773C144.67 45.5758 144.537 45.0909 144.537 44.5227C144.537 44.0227 144.635 43.6174 144.832 43.3068C145.029 42.9924 145.293 42.7462 145.622 42.5682C145.952 42.3902 146.315 42.2576 146.713 42.1705C147.115 42.0795 147.518 42.0076 147.923 41.9545C148.454 41.8864 148.884 41.8352 149.213 41.8011C149.546 41.7633 149.789 41.7008 149.94 41.6136C150.096 41.5265 150.173 41.375 150.173 41.1591V41.1136C150.173 40.553 150.02 40.1174 149.713 39.8068C149.41 39.4962 148.95 39.3409 148.332 39.3409C147.692 39.3409 147.19 39.4811 146.827 39.7614C146.463 40.0417 146.207 40.3409 146.06 40.6591L144.787 40.2045C145.014 39.6742 145.317 39.2614 145.696 38.9659C146.079 38.6667 146.495 38.4583 146.946 38.3409C147.401 38.2197 147.848 38.1591 148.287 38.1591C148.567 38.1591 148.889 38.1932 149.253 38.2614C149.62 38.3258 149.974 38.4602 150.315 38.6648C150.66 38.8693 150.946 39.178 151.173 39.5909C151.401 40.0038 151.514 40.5568 151.514 41.25V47H150.173V45.8182H150.105C150.014 46.0076 149.863 46.2102 149.651 46.4261C149.438 46.642 149.156 46.8258 148.804 46.9773C148.452 47.1288 148.022 47.2045 147.514 47.2045ZM147.719 46C148.249 46 148.696 45.8958 149.06 45.6875C149.427 45.4792 149.704 45.2102 149.889 44.8807C150.079 44.5511 150.173 44.2045 150.173 43.8409V42.6136C150.116 42.6818 149.991 42.7443 149.798 42.8011C149.609 42.8542 149.389 42.9015 149.139 42.9432C148.893 42.9811 148.652 43.0152 148.418 43.0455C148.187 43.072 147.999 43.0947 147.855 43.1136C147.507 43.1591 147.181 43.233 146.878 43.3352C146.579 43.4337 146.336 43.5833 146.151 43.7841C145.969 43.9811 145.878 44.25 145.878 44.5909C145.878 45.0568 146.05 45.4091 146.395 45.6477C146.743 45.8826 147.185 46 147.719 46ZM153.962 47V38.2727H155.257V39.5909H155.348C155.507 39.1591 155.795 38.8087 156.212 38.5398C156.628 38.2708 157.098 38.1364 157.621 38.1364C157.719 38.1364 157.842 38.1383 157.99 38.142C158.138 38.1458 158.25 38.1515 158.325 38.1591V39.5227C158.28 39.5114 158.176 39.4943 158.013 39.4716C157.854 39.4451 157.685 39.4318 157.507 39.4318C157.083 39.4318 156.704 39.5208 156.371 39.6989C156.041 39.8731 155.78 40.1155 155.587 40.4261C155.397 40.733 155.303 41.0833 155.303 41.4773V47H153.962ZM164.257 38.2727V39.4091H159.734V38.2727H164.257ZM161.053 36.1818H162.393V44.5C162.393 44.8788 162.448 45.1629 162.558 45.3523C162.672 45.5379 162.816 45.6629 162.99 45.7273C163.168 45.7879 163.356 45.8182 163.553 45.8182C163.7 45.8182 163.821 45.8106 163.916 45.7955C164.011 45.7765 164.087 45.7614 164.143 45.75L164.416 46.9545C164.325 46.9886 164.198 47.0227 164.036 47.0568C163.873 47.0947 163.666 47.1136 163.416 47.1136C163.037 47.1136 162.666 47.0322 162.303 46.8693C161.943 46.7064 161.643 46.4583 161.405 46.125C161.17 45.7917 161.053 45.3712 161.053 44.8636V36.1818ZM167.615 41.75V47H166.274V38.2727H167.57V39.6364H167.683C167.888 39.1932 168.198 38.8371 168.615 38.5682C169.032 38.2955 169.57 38.1591 170.229 38.1591C170.82 38.1591 171.337 38.2803 171.78 38.5227C172.223 38.7614 172.568 39.125 172.814 39.6136C173.06 40.0985 173.183 40.7121 173.183 41.4545V47H171.842V41.5455C171.842 40.8598 171.664 40.3258 171.308 39.9432C170.952 39.5568 170.464 39.3636 169.842 39.3636C169.414 39.3636 169.032 39.4564 168.695 39.642C168.361 39.8277 168.098 40.0985 167.905 40.4545C167.712 40.8106 167.615 41.2424 167.615 41.75ZM179.293 47.1818C178.452 47.1818 177.726 46.9962 177.116 46.625C176.51 46.25 176.043 45.7273 175.713 45.0568C175.387 44.3826 175.224 43.5985 175.224 42.7045C175.224 41.8106 175.387 41.0227 175.713 40.3409C176.043 39.6553 176.501 39.1212 177.088 38.7386C177.679 38.3523 178.368 38.1591 179.156 38.1591C179.611 38.1591 180.06 38.2348 180.503 38.3864C180.946 38.5379 181.349 38.7841 181.713 39.125C182.077 39.4621 182.366 39.9091 182.582 40.4659C182.798 41.0227 182.906 41.7083 182.906 42.5227V43.0909H176.179V41.9318H181.543C181.543 41.4394 181.444 41 181.247 40.6136C181.054 40.2273 180.777 39.9223 180.418 39.6989C180.062 39.4754 179.641 39.3636 179.156 39.3636C178.622 39.3636 178.16 39.4962 177.77 39.7614C177.384 40.0227 177.086 40.3636 176.878 40.7841C176.67 41.2045 176.565 41.6553 176.565 42.1364V42.9091C176.565 43.5682 176.679 44.1269 176.906 44.5852C177.137 45.0398 177.457 45.3864 177.866 45.625C178.276 45.8598 178.751 45.9773 179.293 45.9773C179.645 45.9773 179.963 45.928 180.247 45.8295C180.535 45.7273 180.783 45.5758 180.991 45.375C181.2 45.1705 181.361 44.9167 181.474 44.6136L182.77 44.9773C182.634 45.4167 182.404 45.803 182.082 46.1364C181.76 46.4659 181.363 46.7235 180.889 46.9091C180.416 47.0909 179.884 47.1818 179.293 47.1818ZM184.946 47V38.2727H186.241V39.5909H186.332C186.491 39.1591 186.779 38.8087 187.196 38.5398C187.613 38.2708 188.082 38.1364 188.605 38.1364C188.704 38.1364 188.827 38.1383 188.974 38.142C189.122 38.1458 189.234 38.1515 189.31 38.1591V39.5227C189.264 39.5114 189.16 39.4943 188.997 39.4716C188.838 39.4451 188.67 39.4318 188.491 39.4318C188.067 39.4318 187.688 39.5208 187.355 39.6989C187.026 39.8731 186.764 40.1155 186.571 40.4261C186.382 40.733 186.287 41.0833 186.287 41.4773V47H184.946Z" fill="#383838" fill-opacity="0.8"/>
<g filter="url(#filter0_d_3493_631)">
<circle cx="36" cy="32" r="32" fill="white"/>
</g>
<path d="M56 32C56 20.9543 47.0457 12 36 12C24.9543 12 16 20.9543 16 32C16 41.9824 23.3137 50.2566 32.875 51.757V37.7812H27.7969V32H32.875V27.5937C32.875 22.5812 35.8609 19.8125 40.4293 19.8125C42.6168 19.8125 44.9062 20.2031 44.9062 20.2031V25.125H42.3844C39.9 25.125 39.125 26.6668 39.125 28.25V32H44.6719L43.7852 37.7812H39.125V51.757C48.6863 50.2566 56 41.9824 56 32Z" fill="#1877F2"/>
<path d="M43.7852 37.7812L44.6719 32H39.125V28.25C39.125 26.6684 39.9 25.125 42.3844 25.125H44.9062V20.2031C44.9062 20.2031 42.6176 19.8125 40.4293 19.8125C35.8609 19.8125 32.875 22.5813 32.875 27.5938V32H27.7969V37.7812H32.875V51.757C34.9457 52.081 37.0543 52.081 39.125 51.757V37.7812H43.7852Z" fill="white"/>
<defs>
<filter id="filter0_d_3493_631" x="0" y="0" width="72" height="72" filterUnits="userSpaceOnUse" color-interpolation-filters="sRGB">
<feFlood flood-opacity="0" result="BackgroundImageFix"/>
<feColorMatrix in="SourceAlpha" type="matrix" values="0 0 0 0 0 0 0 0 0 0 0 0 0 0 0 0 0 0 127 0" result="hardAlpha"/>
<feOffset dy="4"/>
<feGaussianBlur stdDeviation="2"/>
<feComposite in2="hardAlpha" operator="out"/>
<feColorMatrix type="matrix" values="0 0 0 0 0 0 0 0 0 0 0 0 0 0 0 0 0 0 0.12 0"/>
<feBlend mode="normal" in2="BackgroundImageFix" result="effect1_dropShadow_3493_631"/>
<feBlend mode="normal" in="SourceGraphic" in2="effect1_dropShadow_3493_631" result="shape"/>
</filter>
</defs>
</svg>
