<svg width="24" height="24" viewBox="0 0 24 24" fill="none" xmlns="http://www.w3.org/2000/svg">
<path d="M7.79998 2.00009H16.2C19.4 2.00009 22 4.60009 22 7.80009V16.2001C22 17.7383 21.3889 19.2136 20.3012 20.3013C19.2135 21.389 17.7382 22.0001 16.2 22.0001H7.79998C4.59998 22.0001 1.99998 19.4001 1.99998 16.2001V7.80009C1.99998 6.26184 2.61105 4.78658 3.69877 3.69887C4.78648 2.61116 6.26173 2.00009 7.79998 2.00009V2.00009ZM7.59998 4.00009C6.64521 4.00009 5.72953 4.37938 5.0544 5.05451C4.37927 5.72964 3.99998 6.64531 3.99998 7.60009V16.4001C3.99998 18.3901 5.60998 20.0001 7.59998 20.0001H16.4C17.3548 20.0001 18.2704 19.6208 18.9456 18.9457C19.6207 18.2705 20 17.3549 20 16.4001V7.60009C20 5.61009 18.39 4.00009 16.4 4.00009H7.59998ZM17.25 5.50009C17.5815 5.50009 17.8994 5.63179 18.1339 5.86621C18.3683 6.10063 18.5 6.41857 18.5 6.75009C18.5 7.08161 18.3683 7.39955 18.1339 7.63398C17.8994 7.8684 17.5815 8.00009 17.25 8.00009C16.9185 8.00009 16.6005 7.8684 16.3661 7.63398C16.1317 7.39955 16 7.08161 16 6.75009C16 6.41857 16.1317 6.10063 16.3661 5.86621C16.6005 5.63179 16.9185 5.50009 17.25 5.50009ZM12 7.00009C13.3261 7.00009 14.5978 7.52688 15.5355 8.46456C16.4732 9.40224 17 10.674 17 12.0001C17 13.3262 16.4732 14.5979 15.5355 15.5356C14.5978 16.4733 13.3261 17.0001 12 17.0001C10.6739 17.0001 9.40213 16.4733 8.46445 15.5356C7.52677 14.5979 6.99998 13.3262 6.99998 12.0001C6.99998 10.674 7.52677 9.40224 8.46445 8.46456C9.40213 7.52688 10.6739 7.00009 12 7.00009V7.00009ZM12 9.00009C11.2043 9.00009 10.4413 9.31616 9.87866 9.87877C9.31605 10.4414 8.99998 11.2044 8.99998 12.0001C8.99998 12.7957 9.31605 13.5588 9.87866 14.1214C10.4413 14.684 11.2043 15.0001 12 15.0001C12.7956 15.0001 13.5587 14.684 14.1213 14.1214C14.6839 13.5588 15 12.7957 15 12.0001C15 11.2044 14.6839 10.4414 14.1213 9.87877C13.5587 9.31616 12.7956 9.00009 12 9.00009Z" fill="#FFFFFF"/>
</svg>
